<svg width="33" height="34" viewBox="0 0 33 34" fill="none" xmlns="http://www.w3.org/2000/svg">
<path d="M16.5 3.85156C13.8995 3.85156 11.3574 4.6227 9.19513 6.06747C7.03288 7.51224 5.34761 9.56575 4.35243 11.9683C3.35726 14.3709 3.09688 17.0146 3.60421 19.5651C4.11155 22.1157 5.36381 24.4585 7.20266 26.2974C9.0415 28.1362 11.3843 29.3885 13.9349 29.8958C16.4854 30.4031 19.1291 30.1427 21.5317 29.1476C23.9343 28.1524 25.9878 26.4671 27.4325 24.3049C28.8773 22.1426 29.6484 19.6005 29.6484 17C29.6444 13.5141 28.2578 10.1721 25.7928 7.70717C23.3279 5.24225 19.9859 3.85566 16.5 3.85156ZM9.20907 26.0234C9.96548 24.7657 11.0344 23.7249 12.312 23.0025C13.5895 22.28 15.0323 21.9003 16.5 21.9003C17.9677 21.9003 19.4105 22.28 20.688 23.0025C21.9656 23.7249 23.0345 24.7657 23.7909 26.0234C21.7289 27.6955 19.1548 28.6081 16.5 28.6081C13.8452 28.6081 11.2711 27.6955 9.20907 26.0234ZM12.1172 15.9688C12.1172 15.1019 12.3742 14.2545 12.8558 13.5338C13.3374 12.813 14.0219 12.2513 14.8228 11.9196C15.6236 11.5878 16.5049 11.501 17.3551 11.6702C18.2052 11.8393 18.9862 12.2567 19.5991 12.8696C20.2121 13.4826 20.6295 14.2635 20.7986 15.1137C20.9677 15.9639 20.8809 16.8451 20.5492 17.646C20.2175 18.4468 19.6557 19.1313 18.935 19.6129C18.2142 20.0945 17.3668 20.3516 16.5 20.3516C15.3376 20.3516 14.2228 19.8898 13.4009 19.0679C12.579 18.2459 12.1172 17.1311 12.1172 15.9688ZM24.9447 24.9458C23.7294 23.0562 21.913 21.6312 19.7884 20.9007C20.8478 20.1951 21.652 19.1673 22.0822 17.9693C22.5123 16.7713 22.5455 15.4667 22.1769 14.2484C21.8083 13.0301 21.0575 11.9627 20.0354 11.204C19.0133 10.4454 17.7742 10.0358 16.5013 10.0358C15.2284 10.0358 13.9893 10.4454 12.9672 11.204C11.9451 11.9627 11.1943 13.0301 10.8257 14.2484C10.4571 15.4667 10.4903 16.7713 10.9204 17.9693C11.3506 19.1673 12.1548 20.1951 13.2142 20.9007C11.0896 21.6312 9.27317 23.0562 8.05794 24.9458C6.50439 23.2972 5.46747 21.2298 5.0751 18.9988C4.68273 16.7678 4.95207 14.4707 5.84991 12.391C6.74774 10.3113 8.23478 8.53988 10.1276 7.29538C12.0203 6.05088 14.236 5.38772 16.5013 5.38772C18.7666 5.38772 20.9823 6.05088 22.875 7.29538C24.7678 8.53988 26.2549 10.3113 27.1527 12.391C28.0505 14.4707 28.3199 16.7678 27.9275 18.9988C27.5351 21.2298 26.4982 23.2972 24.9447 24.9458Z" fill="black"/>
</svg>
